<?xml version="1.0" encoding="UTF-8" standalone="no"?>
<svg
   xmlns:dc="http://purl.org/dc/elements/1.1/"
   xmlns:cc="http://creativecommons.org/ns#"
   xmlns:rdf="http://www.w3.org/1999/02/22-rdf-syntax-ns#"
   xmlns:svg="http://www.w3.org/2000/svg"
   xmlns="http://www.w3.org/2000/svg"
   xmlns:sodipodi="http://sodipodi.sourceforge.net/DTD/sodipodi-0.dtd"
   xmlns:inkscape="http://www.inkscape.org/namespaces/inkscape"
   viewBox="0 0 139.99999 140.00001"
   version="1.1"
   id="svg27"
   sodipodi:docname="kinrw-pg.svg"
   width="140"
   height="140"
   inkscape:version="0.92.5 (2060ec1f9f, 2020-04-08)">
  <metadata
     id="metadata31">
    <rdf:RDF>
      <cc:Work
         rdf:about="">
        <dc:format>image/svg+xml</dc:format>
        <dc:type
           rdf:resource="http://purl.org/dc/dcmitype/StillImage" />
        <dc:title></dc:title>
      </cc:Work>
    </rdf:RDF>
  </metadata>
  <sodipodi:namedview
     pagecolor="#ffffff"
     bordercolor="#666666"
     borderopacity="1"
     objecttolerance="10"
     gridtolerance="10"
     guidetolerance="10"
     inkscape:pageopacity="0"
     inkscape:pageshadow="2"
     inkscape:window-width="1920"
     inkscape:window-height="1143"
     id="namedview29"
     showgrid="false"
     inkscape:zoom="1"
     inkscape:cx="159.4497"
     inkscape:cy="69.515002"
     inkscape:window-x="0"
     inkscape:window-y="0"
     inkscape:window-maximized="1"
     inkscape:current-layer="Ebene_1-2"
     fit-margin-top="0"
     fit-margin-left="0"
     fit-margin-right="0"
     fit-margin-bottom="0" />
  <defs
     id="defs17">
    <style
       id="style10">.cls-1{fill:#1a171b;}.cls-2{fill:url(#Neues_Verlaufsfeld_1);}</style>
    <linearGradient
       id="Neues_Verlaufsfeld_1"
       x1="65.419998"
       y1="108.36"
       x2="143.11"
       y2="30.66"
       gradientUnits="userSpaceOnUse">
      <stop
         offset="0"
         stop-color="#009ee0"
         id="stop12" />
      <stop
         offset="1"
         stop-color="#b1c800"
         id="stop14" />
    </linearGradient>
  </defs>
  <g
     id="Ebene_2"
     data-name="Ebene 2"
     transform="translate(0.02469904,0.98000594)">
    <g
       id="Ebene_1-2"
       data-name="Ebene 1">
      <path
         class="cls-1"
         d="M 48.75,132.73 27.79,101 l -7.91,8.75 v 23 c 0,1.55 -0.71,2.27 -2.15,2.27 H 2.28 A 2,2 0 0 1 0,132.73 v -79.3 a 2,2 0 0 1 2.28,-2.28 h 15.45 c 1.44,0 2.15,0.72 2.15,2.28 V 82.78 L 45.52,53.31 A 5.5,5.5 0 0 1 50,51.15 h 20.07 c 1.32,0 1.56,1.08 0.6,2.28 l -28.39,33.3 30.43,46 c 0.72,1.19 0.36,2.27 -1.2,2.27 H 52.82 a 4.33,4.33 0 0 1 -4.07,-2.27 z"
         id="path19"
         inkscape:connector-curvature="0"
         style="fill:#1a171b" />
      <path
         class="cls-2"
         d="m 114,93.07 c 0,7.22 9.83,15.51 9.83,26.3 a 19.65,19.65 0 0 1 -39.3,0 c 0,-10.79 9.83,-19.08 9.83,-26.3 0,-7.22 -9.83,-15.42 -9.83,-26.28 a 19.64,19.64 0 0 1 19.65,-19.64 v 0 a 19.64,19.64 0 0 1 19.65,19.64 C 123.86,77.65 114,85.86 114,93.07 Z M 104.32,0 A 19.64,19.64 0 1 0 124,19.64 19.64,19.64 0 0 0 104.32,0 Z"
         id="path23"
         inkscape:connector-curvature="0"
         style="fill:url(#Neues_Verlaufsfeld_1)" />
    </g>
  </g>
</svg>
