<?xml version="1.0" encoding="UTF-8" standalone="no"?>
<svg
   viewBox="0 0 20 20"
   width="40"
   height="40"
   version="1.1"
   id="svg55"
   sodipodi:docname="kubernetes-icon.svg"
   inkscape:version="1.1.2 (0a00cf5339, 2022-02-04)"
   xmlns:inkscape="http://www.inkscape.org/namespaces/inkscape"
   xmlns:sodipodi="http://sodipodi.sourceforge.net/DTD/sodipodi-0.dtd"
   xmlns="http://www.w3.org/2000/svg"
   xmlns:svg="http://www.w3.org/2000/svg">
  <defs
     id="defs59" />
  <sodipodi:namedview
     id="namedview57"
     pagecolor="#ffffff"
     bordercolor="#666666"
     borderopacity="1.0"
     inkscape:pageshadow="2"
     inkscape:pageopacity="0.0"
     inkscape:pagecheckerboard="0"
     showgrid="false"
     width="40px"
     inkscape:zoom="12.609375"
     inkscape:cx="4.7187113"
     inkscape:cy="32"
     inkscape:window-width="1862"
     inkscape:window-height="1016"
     inkscape:window-x="58"
     inkscape:window-y="27"
     inkscape:window-maximized="1"
     inkscape:current-layer="svg55" />
  <path
     d="M 9.9147666,0.47534325 A 1.3344533,1.3344533 0 0 0 9.4015632,0.61128289 L 2.4518051,3.9262147 C 2.0888836,4.0989453 1.8251108,4.42757 1.7346923,4.819176 l -1.70111624,7.439889 c -0.08106493,0.349203 -0.01558941,0.715242 0.18707289,1.014559 q 0.0355438,0.05425 0.0748292,0.104761 l 4.80153765,5.970119 c 0.2537956,0.311789 0.6348007,0.490755 1.0363839,0.488884 h 7.7011673 c 0.402831,6.24e-4 0.784459,-0.187073 1.037631,-0.494496 l 4.799044,-5.971367 c 0.251925,-0.311788 0.346085,-0.723348 0.24943,-1.113707 L 18.208332,4.811693 C 18.117913,4.4200871 17.852893,4.0914624 17.491219,3.9187317 L 10.552685,0.61190647 A 1.3344533,1.3344533 0 0 0 9.9085308,0.47534325 Z"
     fill="#326ce5"
     id="path51"
     style="stroke-width:0.623576" />
  <path
     d="M 9.9783713,3.0108046 C 9.738918,3.0276412 9.5574573,3.2327978 9.5699289,3.4722511 v 0.1172323 c 0.011224,0.1328218 0.031179,0.2643964 0.057369,0.3947239 a 3.8786448,3.8786448 0 0 1 0.041156,0.7545273 C 9.644758,4.8216703 9.5973662,4.8964994 9.5325143,4.9538684 L 9.5231606,5.129717 C 9.2706122,5.1509186 9.0199345,5.1895803 8.7729983,5.2457022 7.7341201,5.4801669 6.7881548,6.0189368 6.057947,6.7952893 L 5.9082886,6.6892814 C 5.8259766,6.7142244 5.7374287,6.7048708 5.661976,6.6643383 A 3.8786448,3.8786448 0 0 1 5.102628,6.1592415 3.4608486,3.4608486 0 0 0 4.8301252,5.8692785 L 4.7378359,5.7956965 C 4.6555238,5.7295974 4.5545044,5.6915592 4.44912,5.6865706 A 0.39908885,0.39908885 0 0 0 4.118001,5.8337346 C 3.9770728,6.0314083 4.0232174,6.3051584 4.2202675,6.4467102 l 0.086054,0.068593 A 3.4608486,3.4608486 0 0 0 4.6505356,6.7167183 C 4.8712816,6.8395629 5.0795561,6.983609 5.2728648,7.1532218 A 0.46144648,0.46144648 0 0 1 5.3558,7.3926755 L 5.4917397,7.5173907 C 4.7577903,8.6186265 4.456603,9.9524563 4.644923,11.26259 l -0.1746014,0.04989 c -0.045521,0.07233 -0.1060079,0.134069 -0.1783428,0.17959 a 3.8786448,3.8786448 0 0 1 -0.7445501,0.122845 3.4733202,3.4733202 0 0 0 -0.3990889,0.03118 l -0.110373,0.02494 h -0.012471 a 0.41779614,0.41779614 0 0 0 -0.2413241,0.705888 0.41779614,0.41779614 0 0 0 0.4265263,0.10289 h 0.00811 l 0.1122438,-0.01247 c 0.126586,-0.03741 0.2513012,-0.08356 0.3728986,-0.13594 0.2338411,-0.09354 0.4764123,-0.165248 0.7245957,-0.212016 0.086054,0.005 0.1683656,0.0343 0.2382062,0.08418 l 0.1870729,-0.03118 c 0.4053246,1.257753 1.2571299,2.323445 2.3945331,2.995037 l -0.076076,0.159012 c 0.03492,0.07296 0.048015,0.154023 0.037414,0.234465 -0.10289,0.238206 -0.2288525,0.466435 -0.3760165,0.680945 a 3.4795559,3.4795559 0 0 0 -0.2232403,0.332366 l -0.053004,0.112244 a 0.41779614,0.41779614 0 0 0 0.4053246,0.6242 0.41779614,0.41779614 0 0 0 0.3448377,-0.269385 l 0.051757,-0.106008 c 0.047392,-0.124715 0.087301,-0.251925 0.1197266,-0.380382 0.110373,-0.272502 0.1702364,-0.56496 0.3211418,-0.745797 a 0.33673122,0.33673122 0 0 1 0.1783429,-0.0873 l 0.093536,-0.170236 a 5.375228,5.375228 0 0 0 3.8325009,0.0094 l 0.08294,0.159012 c 0.08481,0.01247 0.160883,0.05924 0.212016,0.127833 0.117233,0.22324 0.212016,0.457081 0.284351,0.698405 a 3.4733202,3.4733202 0 0 0 0.120974,0.381006 l 0.05176,0.106008 a 0.41779614,0.41779614 0 0 0 0.740185,0.08169 0.41779614,0.41779614 0 0 0 0.01,-0.437127 l -0.05425,-0.112244 a 3.4608486,3.4608486 0 0 0 -0.22324,-0.331119 c -0.143423,-0.207027 -0.266891,-0.427773 -0.374146,-0.65912 a 0.32425969,0.32425969 0 0 1 0.0424,-0.24943 1.4279898,1.4279898 0 0 1 -0.06922,-0.167743 c 1.134909,-0.67658 1.982973,-1.746013 2.383932,-3.005637 l 0.177096,0.03118 c 0.06361,-0.05799 0.147164,-0.08855 0.232594,-0.08605 0.24756,0.04739 0.490131,0.124715 0.724596,0.212016 0.121597,0.05612 0.246312,0.103513 0.372898,0.143422 0.02993,0.0081 0.07358,0.01497 0.107255,0.02307 h 0.0081 a 0.41779614,0.41779614 0 0 0 0.524428,-0.530664 0.41779614,0.41779614 0 0 0 -0.339226,-0.278115 l -0.120974,-0.02868 a 3.4733202,3.4733202 0 0 0 -0.399089,-0.03118 c -0.251924,-0.01621 -0.501355,-0.05737 -0.74455,-0.122845 -0.07483,-0.04178 -0.137187,-0.104137 -0.17959,-0.17959 l -0.168365,-0.04989 a 5.3939352,5.3939352 0 0 0 -0.8643,-3.7371417 l 0.147164,-0.1359396 c -0.0062,-0.08543 0.02182,-0.1702364 0.07732,-0.2357119 C 14.8591,6.9817387 15.066751,6.8364454 15.285003,6.7123537 A 3.4733202,3.4733202 0 0 0 15.62922,6.5109385 l 0.09104,-0.073582 A 0.41779614,0.41779614 0 0 0 15.63733,5.6878178 0.41779614,0.41779614 0 0 0 15.20332,5.7882136 l -0.09229,0.073582 a 3.4733202,3.4733202 0 0 0 -0.272503,0.289963 c -0.164624,0.18832 -0.346708,0.3598035 -0.544382,0.5132033 A 0.46144648,0.46144648 0 0 1 14.04222,6.6923989 L 13.884453,6.804643 C 12.974032,5.8505712 11.747457,5.2581737 10.432958,5.1396942 c 0,-0.062358 -0.0081,-0.1558941 -0.0094,-0.1852022 -0.07046,-0.048639 -0.119727,-0.1228445 -0.13594,-0.2070273 a 3.8848805,3.8848805 0 0 1 0.04739,-0.7526566 c 0.02681,-0.1309511 0.04552,-0.2619021 0.05737,-0.3947239 V 3.475369 C 10.404898,3.2359157 10.22406,3.030759 9.9839835,3.0139225 Z M 9.4583087,6.2321999 9.3335934,8.410352 h -0.00935 C 9.318004,8.5450445 9.2388098,8.6597826 9.1172124,8.7246345 8.9956151,8.7894864 8.8515689,8.7701556 8.7430666,8.6909614 L 6.9565205,7.4251014 A 4.2777336,4.2777336 0 0 1 9.0161931,6.3032876 c 0.1459168,-0.031179 0.2930808,-0.054875 0.4408684,-0.071088 z m 1.0401253,0 c 0.938482,0.1166088 1.812113,0.5381464 2.48807,1.1997609 l -1.76971,1.2577534 c -0.109126,0.087301 -0.258784,0.1047609 -0.38537,0.044898 -0.126586,-0.059863 -0.207651,-0.1870729 -0.209522,-0.326754 z m -4.1904329,2.0122808 1.63377,1.4579215 v 0.00935 C 8.043414,9.8003037 8.0876879,9.938114 8.0577563,10.069689 8.0278246,10.201263 7.9268052,10.3054 7.7977249,10.340944 v 0.0062 L 5.7012613,10.950178 A 4.2777336,4.2777336 0 0 1 6.3086247,8.2438572 Z m 7.3288929,0 c 0.496366,0.8075314 0.715865,1.7547438 0.624823,2.6982153 l -2.099581,-0.60487 v -0.0081 C 12.031185,10.294186 11.931412,10.190045 11.902104,10.05847 11.872794,9.9268957 11.916444,9.7903325 12.01809,9.7005375 L 13.639388,8.2494693 Z M 9.6435109,9.8158931 H 10.311985 L 10.720427,10.334709 10.572016,10.983228 9.971512,11.271944 9.3697608,10.983228 9.228209,10.334709 Z m 2.1413611,1.7697099 c 0.02806,-0.0031 0.06236,-0.0031 0.08418,0 l 2.161939,0.364792 c -0.311788,0.89795 -0.927258,1.664949 -1.730424,2.178152 l -0.835593,-2.022882 a 0.36791003,0.36791003 0 0 1 0.317401,-0.510709 z m -3.631085,0.0094 c 0.122221,0.0019 0.2350883,0.06485 0.301811,0.167119 0.066723,0.102266 0.077323,0.230723 0.029308,0.342967 v 0.0081 L 7.6543024,14.119817 C 6.8592425,13.610355 6.2556207,12.85271 5.9344789,11.964114 l 2.1432318,-0.363545 c 0.023696,-0.0025 0.048015,-0.0025 0.072335,0 z m 1.8108657,0.873007 a 0.36791003,0.36791003 0 0 1 0.3348603,0.192062 h 0.0081 l 1.056338,1.906273 -0.422161,0.124715 c -0.776976,0.177719 -1.5882491,0.135939 -2.3434001,-0.120974 l 1.0600798,-1.906273 c 0.064228,-0.112244 0.1827079,-0.180837 0.3117882,-0.183955 z"
     fill="#ffffff"
     stroke="#ffffff"
     stroke-width="0.055"
     id="path53" />
</svg>
